<?xml version="1.0" standalone="no"?>
<!DOCTYPE svg PUBLIC "-//W3C//DTD SVG 20010904//EN"
 "http://www.w3.org/TR/2001/REC-SVG-20010904/DTD/svg10.dtd">
<svg version="1.0" xmlns="http://www.w3.org/2000/svg"
 width="474.000000pt" height="470.000000pt" viewBox="0 0 474.000000 470.000000"
 preserveAspectRatio="xMidYMid meet">

<g transform="translate(0.000000,470.000000) scale(0.100000,-0.100000)"
fill="#000000" stroke="none">
<path d="M2185 4140 c-945 -6 -880 -2 -1045 -70 -317 -131 -532 -424 -571
-780 -9 -87 -1 -1153 9 -1092 4 29 22 29 23 0 1 -13 5 -5 9 17 l7 40 2 -40 c2
-28 5 -34 10 -22 5 15 11 8 30 -32 12 -28 31 -56 42 -61 10 -6 19 -17 19 -25
0 -8 7 -15 15 -15 8 0 19 -9 25 -20 6 -11 17 -20 25 -20 8 0 15 -9 15 -20 0
-11 7 -20 15 -20 8 0 14 -6 13 -12 -2 -7 4 -14 12 -14 8 -1 21 -2 28 -3 6 0
13 -13 13 -28 l1 -28 8 30 7 30 6 -25 c4 -14 8 -45 9 -70 2 -25 7 242 11 592
9 717 8 715 87 874 104 213 275 356 515 431 l90 28 760 0 760 0 85 -23 c299
-82 505 -286 592 -589 23 -78 23 -79 23 -838 0 -752 0 -761 -22 -843 -74 -276
-265 -479 -542 -576 l-86 -30 -500 -7 c-275 -4 -561 -8 -635 -9 -74 -1 -128
-4 -120 -7 8 -3 25 -17 38 -30 12 -14 29 -22 37 -20 16 7 39 -18 30 -33 -8
-12 42 -60 64 -61 10 0 12 -2 4 -6 -22 -8 -14 -21 21 -33 23 -7 36 -18 38 -32
2 -14 14 -25 33 -31 49 -16 50 -31 2 -38 -23 -4 235 -6 573 -5 551 2 621 3
674 19 341 101 585 348 678 687 l23 85 0 985 0 985 -24 95 c-47 187 -182 399
-322 507 -125 96 -267 162 -406 189 -105 20 -247 22 -1208 14z"/>
<path d="M1630 3563 c-222 -37 -418 -221 -474 -445 -15 -58 -16 -147 -16 -749
0 -437 4 -687 10 -693 6 -6 10 -23 10 -38 0 -15 5 -28 10 -28 6 0 10 11 10 24
0 14 4 27 9 30 5 4 7 -4 4 -15 -4 -15 0 -27 12 -35 10 -8 30 -33 44 -56 16
-27 33 -43 45 -43 11 0 20 -8 22 -20 3 -22 33 -47 46 -39 14 9 40 -17 34 -33
-3 -8 5 -25 19 -37 14 -13 25 -28 25 -35 0 -6 5 -11 11 -11 14 0 69 -55 69
-69 0 -6 5 -11 11 -11 14 0 69 -55 69 -69 0 -6 14 -11 30 -11 17 0 31 -6 32
-12 0 -7 2 -17 3 -23 2 -5 3 -16 4 -22 0 -7 8 -13 17 -13 8 0 12 -4 9 -10 -4
-7 232 -10 701 -10 618 0 716 2 773 16 205 51 383 226 436 430 23 88 23 1497
-1 1586 -43 167 -157 309 -308 383 -135 67 -105 65 -911 64 -401 -1 -741 -4
-755 -6z m1626 -322 c34 -21 64 -75 64 -115 0 -47 -38 -106 -78 -123 -43 -18
-107 -13 -145 11 -34 23 -61 94 -53 138 6 35 38 77 71 96 31 18 106 14 141 -7z
m-761 -241 c151 -22 313 -101 423 -208 250 -244 302 -612 131 -927 -41 -74
-192 -227 -271 -274 -32 -18 -97 -47 -145 -64 -114 -40 -287 -49 -410 -22
-217 47 -413 201 -513 402 -65 132 -75 179 -74 343 0 129 3 154 27 225 118
355 469 576 832 525z"/>
<path d="M2328 2788 c-213 -21 -387 -160 -459 -364 -29 -84 -36 -221 -15 -304
50 -198 203 -355 391 -405 81 -21 215 -19 297 4 168 46 307 179 363 344 34
103 42 203 21 292 -68 287 -310 463 -598 433z"/>
<path d="M1141 1644 c0 -11 3 -14 6 -6 3 7 2 16 -1 19 -3 4 -6 -2 -5 -13z"/>
</g>
</svg>
