<?xml version="1.0" standalone="no"?>
<!DOCTYPE svg PUBLIC "-//W3C//DTD SVG 20010904//EN"
 "http://www.w3.org/TR/2001/REC-SVG-20010904/DTD/svg10.dtd">
<svg version="1.0" xmlns="http://www.w3.org/2000/svg"
 width="474.000000pt" height="447.000000pt" viewBox="0 0 474.000000 447.000000"
 preserveAspectRatio="xMidYMid meet">

<g transform="translate(0.000000,447.000000) scale(0.100000,-0.100000)"
fill="#000000" stroke="none">
<path d="M2346 4193 c-35 -109 -86 -350 -86 -405 0 -30 -14 -38 -24 -13 -3 8
-9 15 -13 15 -16 0 -46 -86 -51 -147 -4 -58 -6 -62 -25 -52 -15 8 -22 8 -28
-2 -12 -20 -22 -155 -15 -205 3 -24 4 -44 3 -44 -2 0 -18 11 -37 25 -19 14
-38 25 -43 25 -5 0 -7 -41 -4 -92 5 -99 9 -124 27 -158 18 -33 6 -35 -37 -6
-20 14 -41 26 -45 26 -17 0 -8 -140 12 -192 11 -28 18 -54 16 -56 -2 -2 -18 4
-35 12 -39 21 -51 20 -51 -2 0 -32 30 -135 56 -191 13 -30 22 -56 20 -59 -3
-2 -22 5 -42 17 -29 18 -39 19 -46 9 -20 -31 21 -143 75 -205 l31 -35 -49 7
-48 8 6 -37 c3 -20 22 -68 42 -108 19 -39 33 -73 31 -75 -2 -3 -18 3 -35 12
l-31 16 0 -38 c0 -41 46 -149 73 -172 25 -20 21 -38 -8 -38 -14 0 -28 -3 -31
-6 -3 -2 13 -45 35 -95 23 -49 41 -95 41 -101 0 -18 -17 -13 -32 11 -13 20
-17 21 -32 9 -20 -17 -20 -17 -36 42 -13 50 -63 137 -79 137 -5 0 -12 -11 -15
-25 -7 -27 -26 -35 -26 -10 0 18 -43 113 -63 140 -14 19 -15 18 -34 -13 -22
-35 -33 -33 -33 7 -1 49 -64 161 -91 161 -5 0 -11 -16 -15 -35 -6 -34 -24 -59
-24 -34 0 19 -59 132 -84 162 -31 36 -42 34 -50 -8 -9 -44 -19 -44 -35 0 -7
19 -35 59 -64 87 l-51 53 -9 -54 -9 -54 -25 44 c-28 51 -111 139 -130 139 -12
0 -18 -26 -14 -57 3 -21 -7 -15 -50 28 -22 22 -61 54 -87 70 -46 29 -47 29
-54 9 -8 -21 -8 -21 -40 3 -68 51 -137 74 -124 42 8 -23 -11 -18 -57 14 -94
64 -289 171 -313 171 -17 0 141 -235 206 -306 35 -39 37 -44 10 -44 -11 0 -20
-4 -20 -8 0 -16 58 -99 84 -119 31 -25 33 -33 6 -33 -35 0 -22 -22 55 -98 41
-40 75 -75 75 -78 0 -2 -10 -4 -22 -4 -13 0 -30 -4 -38 -10 -12 -7 -11 -12 5
-30 28 -31 137 -100 157 -100 34 0 18 -18 -27 -29 -25 -6 -45 -13 -45 -15 0
-12 124 -95 150 -101 43 -9 46 -23 8 -33 -18 -4 -33 -14 -33 -22 0 -19 110
-77 163 -85 51 -9 53 -20 7 -36 -19 -7 -35 -16 -35 -20 0 -21 71 -59 135 -72
l70 -14 -28 -18 c-21 -13 -25 -21 -17 -31 12 -14 124 -54 152 -54 27 0 22 -19
-8 -30 -21 -9 -24 -13 -14 -25 16 -19 113 -55 150 -55 29 0 53 -21 32 -28 -31
-10 -7 -33 59 -54 39 -12 75 -30 80 -40 12 -22 -1 -23 -39 -4 -15 7 -37 17
-49 20 -20 6 -23 4 -23 -20 0 -26 -1 -26 -19 -10 -24 22 -90 46 -108 39 -9 -4
-10 -10 -2 -25 15 -28 7 -31 -30 -12 -41 20 -111 30 -111 16 0 -6 5 -14 10
-17 17 -11 11 -28 -7 -20 -30 11 -98 22 -111 17 -10 -3 -10 -9 2 -27 20 -30
13 -35 -32 -19 -41 15 -112 18 -112 6 0 -4 5 -13 11 -19 13 -13 2 -36 -12 -27
-6 3 -35 3 -66 -1 -41 -5 -53 -10 -49 -21 3 -9 -1 -14 -12 -14 -41 0 -92 -21
-92 -38 0 -14 -15 -20 -72 -30 -95 -16 -189 -43 -183 -52 5 -8 129 -37 205
-48 37 -5 55 -12 55 -21 0 -17 29 -29 74 -30 24 -1 32 -5 28 -15 -7 -18 21
-26 91 -26 49 0 52 -1 42 -19 -5 -11 -10 -22 -10 -25 0 -10 33 -7 90 8 30 8
57 13 59 10 2 -2 -4 -15 -13 -29 l-16 -25 35 0 c20 0 52 7 71 15 l36 15 -6
-25 c-6 -22 -3 -25 18 -25 13 0 46 9 72 20 52 23 61 21 44 -9 -10 -19 -8 -21
18 -21 16 0 46 11 66 25 45 30 46 30 46 4 0 -23 17 -21 84 13 l39 20 -6 -21
c-7 -29 27 -28 78 4 47 29 55 30 55 10 0 -8 9 -15 20 -15 33 0 23 -17 -14 -24
-37 -7 -71 -36 -42 -36 9 0 16 -4 16 -10 0 -5 -5 -10 -10 -10 -6 0 -27 -7 -47
-15 -30 -13 -34 -17 -23 -30 7 -9 19 -14 27 -11 8 3 12 2 9 -3 -3 -5 -17 -8
-31 -8 -14 -1 -34 -8 -45 -18 -18 -16 -18 -19 -3 -30 14 -11 11 -15 -25 -35
-44 -25 -51 -35 -29 -43 8 -3 0 -17 -22 -40 -18 -19 -30 -40 -27 -46 4 -6 -2
-21 -14 -33 -11 -12 -18 -28 -16 -35 3 -7 -17 -43 -44 -79 -28 -37 -50 -71
-50 -76 0 -10 66 22 122 59 20 14 42 22 48 18 6 -4 22 1 36 10 13 9 29 13 34
10 6 -4 28 8 50 25 30 24 40 28 40 16 0 -26 18 -18 42 19 25 37 38 44 38 20 0
-21 13 -19 30 6 39 55 39 56 40 37 0 -30 16 -20 41 27 25 47 39 57 39 28 1
-15 4 -14 20 6 11 13 20 32 20 42 0 21 16 26 23 7 2 -7 14 7 26 31 15 28 26
40 30 32 10 -16 27 4 36 42 5 17 13 26 20 23 8 -3 19 11 28 35 9 22 21 38 28
37 8 -2 17 14 22 40 6 23 15 42 22 42 7 0 20 30 29 67 22 90 39 107 29 28 -12
-91 -10 -291 6 -482 12 -140 17 -173 29 -173 13 0 14 16 9 102 -3 57 -11 155
-17 218 -14 134 0 423 19 405 3 -4 17 -43 31 -88 17 -54 31 -82 40 -82 8 0 15
-7 16 -15 1 -8 2 -26 2 -38 1 -14 10 -26 20 -29 10 -2 24 -20 31 -38 7 -21 17
-32 25 -29 8 3 17 -10 25 -36 12 -40 24 -50 37 -29 3 6 15 -8 26 -33 11 -23
22 -37 25 -30 8 21 21 13 28 -17 8 -39 30 -58 42 -37 7 12 14 5 33 -30 21 -41
25 -44 36 -29 11 15 13 15 25 -6 23 -44 49 -62 49 -34 0 21 17 19 24 -3 4 -11
18 -29 31 -42 21 -20 25 -21 25 -7 0 23 7 21 47 -9 18 -14 38 -22 44 -19 6 4
19 -1 29 -10 11 -10 26 -15 35 -11 9 3 33 -5 53 -18 58 -37 122 -67 122 -58 0
10 -77 114 -98 131 -12 9 -13 15 -5 18 14 5 -4 53 -20 53 -5 0 -7 9 -4 20 3
14 -5 29 -29 50 -38 33 -41 40 -18 40 14 0 14 3 3 16 -7 8 -26 23 -43 32 -25
13 -27 17 -13 20 26 5 16 24 -27 48 -29 17 -34 23 -21 28 24 9 10 24 -35 37
-41 12 -54 29 -23 29 28 0 -5 26 -47 38 -32 10 -33 11 -12 17 12 4 22 14 22
21 0 18 7 18 38 -4 32 -22 92 -44 93 -34 1 4 0 15 -1 25 -1 16 4 16 49 -7 61
-31 71 -32 71 -6 0 25 2 25 46 -5 20 -14 47 -25 60 -25 27 0 28 3 14 31 -13
23 -3 24 39 3 18 -9 50 -19 73 -22 38 -5 40 -4 29 16 -19 35 -12 41 26 21 46
-24 108 -26 99 -4 -3 8 -9 23 -13 32 -5 13 -3 15 13 9 30 -13 87 -25 113 -26
17 0 21 4 17 15 -3 8 -8 21 -11 28 -4 9 7 11 40 9 58 -5 95 4 95 23 0 9 9 15
24 15 40 0 85 20 79 36 -4 10 4 14 30 14 37 0 145 22 207 42 l35 12 -60 18
c-33 10 -95 23 -137 30 -65 10 -77 15 -73 29 6 18 -38 39 -83 39 -17 0 -23 4
-19 14 5 12 -9 16 -64 22 -65 6 -82 15 -59 29 5 3 10 11 10 17 0 11 -88 6
-140 -9 l-25 -7 18 27 c19 30 17 31 -48 27 -22 -1 -46 -7 -53 -12 -19 -16 -25
-3 -12 23 12 21 11 22 -27 17 -22 -3 -57 -14 -77 -23 -42 -20 -53 -16 -36 14
10 19 8 21 -18 21 -16 0 -46 -11 -66 -25 -46 -31 -48 -31 -40 0 8 31 -2 32
-61 4 -25 -12 -48 -19 -51 -17 -13 14 13 37 54 48 71 20 107 39 93 53 -18 18
-13 33 12 34 75 6 167 43 167 69 0 6 -11 15 -25 18 -35 9 -24 22 25 30 44 7
130 45 130 58 0 4 -11 15 -25 24 -32 21 -28 25 29 30 67 5 156 48 156 74 0 4
-16 11 -36 14 -48 10 -39 25 28 46 56 17 148 68 148 82 0 3 -16 12 -35 18 -35
12 -48 30 -20 30 26 0 99 39 134 72 l34 32 -39 13 c-47 16 -66 33 -39 33 29 0
115 52 154 93 l34 36 -37 6 c-34 7 -61 25 -36 25 17 0 151 140 145 151 -4 5
-13 9 -21 9 -20 0 -18 13 4 27 23 14 82 101 82 120 0 7 -9 13 -20 13 -11 0
-20 1 -20 3 0 2 20 26 45 53 54 58 200 272 192 280 -11 12 -78 -19 -200 -91
-69 -41 -129 -79 -132 -85 -10 -16 -38 -12 -31 5 3 9 0 15 -10 15 -23 0 -96
-36 -121 -59 -26 -25 -33 -26 -33 -6 0 8 -6 15 -13 15 -16 0 -90 -52 -139 -99
l-38 -35 0 29 c0 61 -14 62 -69 6 -29 -29 -61 -71 -72 -92 -23 -46 -39 -43
-39 6 0 19 -4 36 -8 39 -14 8 -90 -73 -113 -120 -23 -49 -33 -50 -42 -4 -9 41
-21 38 -58 -12 -28 -39 -44 -70 -70 -138 -8 -20 -12 -22 -19 -10 -6 8 -10 25
-10 37 0 34 -16 36 -45 6 -31 -32 -43 -58 -59 -128 l-12 -50 -18 35 -19 34
-23 -29 c-12 -15 -34 -58 -47 -94 -25 -67 -26 -67 -43 -12 -12 38 -94 -97 -94
-154 0 -29 -3 -30 -31 -12 -17 10 -22 9 -38 -12 -36 -47 -30 -2 11 88 23 50
39 93 36 96 -3 4 -15 7 -27 8 -27 2 -27 5 13 70 37 62 62 138 52 162 -5 14 -9
14 -35 0 -44 -22 -45 -19 -18 28 22 37 67 154 67 173 0 4 -21 4 -46 0 l-46 -6
30 38 c16 20 37 52 46 71 18 34 34 141 22 141 -4 0 -25 -10 -46 -22 -21 -13
-41 -20 -44 -17 -4 3 5 26 18 50 41 76 74 203 55 215 -6 3 -26 -2 -44 -12 -19
-10 -37 -16 -39 -13 -3 3 4 23 14 45 13 25 23 72 27 122 7 93 2 99 -53 57 -42
-32 -59 -33 -43 -2 29 53 51 238 31 251 -5 3 -25 -6 -44 -19 l-35 -24 -5 125
c-3 68 -8 127 -11 131 -4 3 -17 1 -30 -4 -23 -11 -24 -9 -25 30 -2 52 -10 90
-29 134 -13 33 -15 34 -33 18 -20 -18 -21 -17 -35 85 -20 136 -83 380 -99 380
-2 0 -11 -21 -20 -47z m34 -955 c0 -9 4 -8 10 2 7 10 10 -21 10 -97 0 -66 4
-113 10 -113 5 0 14 -18 20 -40 6 -22 17 -40 24 -40 21 0 26 -93 26 -501 0
-246 -4 -379 -10 -379 -6 0 -10 -33 -10 -80 0 -64 -3 -80 -15 -80 -12 0 -15
-16 -15 -80 0 -79 0 -80 25 -80 23 0 25 -3 25 -49 0 -48 1 -50 40 -67 22 -10
40 -24 40 -31 0 -10 35 -13 160 -13 100 0 160 4 160 10 0 6 10 10 23 10 18 0
19 -2 7 -10 -11 -7 -7 -10 18 -10 31 0 32 2 32 40 0 36 3 40 25 40 22 0 25 4
25 39 0 32 4 40 23 45 21 6 107 78 107 91 0 3 -5 3 -11 -1 -7 -4 -10 -1 -7 7
2 8 19 15 36 17 20 2 33 10 37 23 5 14 16 19 46 19 39 0 39 0 39 40 0 40 0 40
38 40 34 0 39 3 47 33 8 24 18 34 42 41 17 6 34 18 36 28 4 13 15 18 41 18 29
0 36 4 36 20 0 17 7 20 40 20 l40 0 0 -40 c0 -38 -2 -40 -30 -40 -28 0 -30 -2
-30 -40 l0 -40 -50 0 c-27 0 -50 -4 -50 -10 0 -5 -5 -10 -10 -10 -20 0 -58
-46 -50 -60 9 -14 2 -49 -13 -67 -5 -7 -27 -13 -48 -13 -37 0 -38 -1 -41 -37
-3 -36 -5 -38 -40 -41 -24 -2 -38 -8 -38 -17 0 -19 -47 -65 -65 -65 -9 0 -15
-10 -15 -25 0 -19 -8 -28 -27 -36 -27 -11 -49 -17 -66 -18 -5 -1 -5 -6 -2 -11
3 -5 3 -10 -2 -10 -4 0 -22 -14 -40 -30 -23 -22 -42 -30 -67 -30 -33 0 -35 -2
-38 -37 -2 -31 -7 -39 -25 -41 -16 -2 -23 -10 -23 -26 0 -12 -7 -31 -15 -42
-16 -22 -21 -174 -6 -174 6 0 11 -17 13 -37 3 -33 7 -38 31 -41 18 -2 27 -9
27 -21 0 -14 -10 -18 -47 -19 -34 -2 -53 -9 -65 -22 -9 -11 -23 -20 -32 -20
-9 0 -16 -8 -16 -20 0 -17 -6 -20 -36 -18 -41 3 -51 13 -34 33 14 17 5 85 -11
85 -6 0 -7 5 -4 10 3 6 2 10 -4 10 -5 0 -12 13 -16 29 -4 20 -13 31 -28 33
-14 2 -23 11 -25 26 -2 12 -8 19 -14 16 -6 -4 -8 1 -4 14 7 22 -4 23 -46 7
-11 -4 -18 -3 -18 4 0 7 -28 11 -80 11 -47 0 -80 -4 -80 -10 0 -5 -12 -10 -27
-10 -16 0 -53 -13 -83 -28 -47 -23 -59 -35 -82 -82 -15 -30 -28 -67 -28 -82 0
-16 -4 -28 -10 -28 -5 0 -10 -13 -10 -29 0 -36 -19 -50 -35 -28 -7 10 -20 17
-29 17 -10 0 -14 4 -11 10 11 17 -14 48 -50 61 -35 13 -35 14 -35 71 0 32 4
58 10 58 6 0 10 18 10 40 0 22 -4 40 -10 40 -6 0 -10 33 -10 80 0 66 -3 80
-15 80 -18 0 -64 49 -65 68 0 7 -15 12 -40 12 -36 0 -40 3 -40 24 0 31 -25 56
-56 56 -17 0 -24 6 -24 19 0 14 -10 20 -40 25 -30 5 -40 11 -40 25 0 27 -67
91 -96 91 -14 0 -24 6 -24 15 0 8 -9 19 -20 25 -12 6 -20 21 -20 35 0 22 -4
25 -40 25 -38 0 -40 2 -40 30 0 20 -5 30 -15 30 -18 0 -65 47 -65 65 0 11 -12
15 -40 15 l-40 0 0 40 c0 38 -2 40 -30 40 -28 0 -30 2 -30 40 0 38 2 40 30 40
17 0 30 -4 30 -10 0 -5 11 -10 24 -10 35 0 56 -10 56 -26 0 -9 11 -14 30 -14
29 0 30 -1 30 -50 l0 -51 44 2 c41 2 49 -1 90 -43 26 -25 46 -53 46 -62 0 -12
10 -16 40 -16 36 0 40 -3 40 -24 0 -29 64 -96 91 -96 15 0 19 -7 19 -40 0 -35
3 -40 23 -40 17 0 25 -8 32 -32 9 -29 14 -33 43 -32 20 1 32 -3 32 -11 0 -19
24 -25 96 -25 36 0 64 -4 64 -10 0 -5 18 -10 40 -10 33 0 40 3 40 20 0 17 7
20 44 20 54 0 76 8 76 26 0 8 8 14 19 14 10 0 21 9 24 20 3 11 14 20 25 20 14
0 22 10 30 40 5 22 6 37 1 34 -5 -3 -9 83 -9 200 0 176 -2 206 -15 206 -11 0
-15 11 -15 40 0 22 -4 40 -10 40 -6 0 -10 33 -10 80 0 48 4 80 10 80 7 0 10
84 10 248 0 136 0 262 0 280 0 21 5 32 14 32 8 0 17 14 21 30 4 17 11 30 16
30 5 0 8 3 8 8 -1 4 -1 58 0 120 l1 112 30 0 c17 0 30 -5 30 -12z m928 -2393
c-3 -3 -9 2 -12 12 -6 14 -5 15 5 6 7 -7 10 -15 7 -18z"/>
</g>
</svg>
