<?xml version="1.0" standalone="no"?>
<!DOCTYPE svg PUBLIC "-//W3C//DTD SVG 20010904//EN"
 "http://www.w3.org/TR/2001/REC-SVG-20010904/DTD/svg10.dtd">
<svg version="1.0" xmlns="http://www.w3.org/2000/svg"
 width="474.000000pt" height="450.000000pt" viewBox="0 0 474.000000 450.000000"
 preserveAspectRatio="xMidYMid meet">

<g transform="translate(0.000000,450.000000) scale(0.100000,-0.100000)"
fill="#000000" stroke="none">
<path d="M2290 3830 c-34 -7 -34 -7 12 -9 26 0 50 4 53 9 7 11 -12 11 -65 0z"/>
<path d="M2418 3833 c12 -2 32 -2 45 0 12 2 2 4 -23 4 -25 0 -35 -2 -22 -4z"/>
<path d="M2538 3833 c12 -2 32 -2 45 0 12 2 2 4 -23 4 -25 0 -35 -2 -22 -4z"/>
<path d="M2648 3823 c7 -3 16 -2 19 1 4 3 -2 6 -13 5 -11 0 -14 -3 -6 -6z"/>
<path d="M2715 3811 c-2 -4 10 -8 26 -9 16 -1 29 -1 29 2 0 7 -50 13 -55 7z"/>
<path d="M2120 3800 c-21 -7 -21 -8 -5 -9 11 0 27 4 35 9 18 11 5 11 -30 0z"/>
<path d="M2800 3792 c0 -4 14 -9 32 -10 37 -3 35 2 -4 12 -16 3 -28 3 -28 -2z"/>
<path d="M2068 3783 c7 -3 16 -2 19 1 4 3 -2 6 -13 5 -11 0 -14 -3 -6 -6z"/>
<path d="M2025 3771 c-3 -6 -13 -9 -23 -9 -23 1 -130 -41 -138 -54 -4 -6 -3
-9 2 -6 58 28 89 38 101 34 9 -4 11 -2 7 5 -4 7 -1 10 7 7 13 -5 69 17 69 27
0 9 -19 5 -25 -4z"/>
<path d="M2884 3771 c4 -5 22 -15 41 -21 22 -7 33 -16 29 -23 -5 -9 -4 -9 6 0
10 9 23 7 59 -10 25 -12 50 -28 54 -34 4 -7 19 -13 33 -13 17 0 23 -4 18 -12
-4 -7 -3 -8 4 -4 7 4 21 1 33 -7 15 -11 17 -16 7 -20 -7 -3 -2 -5 12 -4 13 1
25 -4 26 -10 1 -7 2 -18 3 -24 1 -8 5 -8 15 0 10 8 16 9 21 1 3 -5 2 -10 -2
-10 -5 0 -18 -7 -29 -16 -19 -15 -19 -15 1 -6 34 16 93 2 80 -19 -3 -5 0 -6 8
-3 8 3 17 -2 20 -10 4 -9 13 -16 22 -16 8 0 15 -5 15 -11 0 -5 5 -7 12 -3 7 5
9 2 5 -9 -4 -12 -2 -14 10 -10 10 4 14 2 10 -4 -3 -5 8 -23 25 -39 17 -16 27
-23 23 -15 -5 9 -4 12 3 7 7 -4 12 -13 12 -21 0 -7 11 -23 25 -36 31 -30 31
-37 3 -41 -13 -2 -22 -9 -20 -16 1 -9 -217 -12 -1016 -12 l-1018 0 1 35 c1 28
-1 32 -12 24 -9 -8 -13 -8 -13 -1 0 17 22 27 64 27 44 1 56 15 29 36 -16 13
-17 12 -4 -4 18 -23 8 -33 -13 -11 -13 12 -14 19 -5 30 6 8 16 11 22 7 5 -3 7
-1 4 4 -8 13 17 36 28 25 5 -4 5 -1 1 5 -5 10 -14 7 -36 -9 -37 -27 -145 -148
-132 -148 5 0 15 6 22 14 12 15 40 11 40 -5 0 -4 -7 -6 -15 -3 -18 7 -20 -12
-2 -20 6 -2 -5 -3 -25 -1 -32 3 -41 -1 -68 -31 -17 -19 -27 -40 -24 -46 4 -7
2 -8 -4 -4 -16 10 -37 -33 -23 -47 6 -6 11 -15 11 -21 0 -5 -6 -2 -13 8 -13
17 -15 16 -34 -15 -50 -82 -93 -178 -87 -195 4 -14 3 -15 -4 -6 -6 10 -18 -12
-40 -75 -108 -301 -118 -615 -31 -931 29 -105 89 -243 102 -235 6 3 7 1 3 -6
-4 -6 9 -41 29 -77 32 -58 39 -64 53 -52 15 12 16 11 4 -4 -12 -15 -8 -25 29
-78 41 -59 57 -74 46 -45 -4 8 -2 17 3 20 5 3 7 -8 5 -25 -2 -16 0 -32 5 -35
4 -3 -14 -58 -42 -123 -27 -64 -50 -127 -50 -139 0 -13 -5 -20 -11 -16 -7 4
-8 0 -2 -13 4 -10 8 -27 9 -36 0 -9 4 -14 8 -12 5 3 5 17 2 31 -5 19 -4 24 6
18 9 -5 10 -3 3 11 -11 21 17 110 30 98 4 -4 7 2 7 14 0 11 4 22 10 24 5 2 11
12 13 23 1 11 6 26 10 33 5 6 5 18 2 25 -4 6 5 -1 20 -17 21 -22 26 -36 21
-58 -7 -37 7 -36 21 2 l11 30 171 0 171 0 0 40 0 40 200 0 200 0 0 -40 0 -40
80 0 80 0 0 40 0 40 535 0 c421 0 535 -3 536 -12 1 -7 1 -23 2 -35 0 -31 23
-29 31 2 4 14 11 25 17 25 6 0 8 -7 5 -16 -3 -8 -2 -12 4 -9 13 8 13 -1 0 -24
-6 -13 -18 -17 -39 -15 -31 4 -61 -19 -41 -31 7 -4 8 -11 1 -18 -5 -7 -11 -16
-13 -22 -1 -5 -13 -10 -25 -9 -12 0 -20 -3 -17 -7 2 -4 -4 -13 -13 -20 -15
-12 -16 -12 -10 4 4 11 3 16 -3 12 -11 -7 -7 -51 4 -48 15 3 152 123 191 166
95 106 105 119 99 129 -4 6 -3 8 3 5 18 -11 36 19 24 41 -6 12 -7 30 -1 48 7
25 8 26 9 6 1 -13 6 -20 11 -17 14 9 13 -8 -2 -23 -6 -6 -9 -14 -6 -17 8 -8
83 115 133 220 62 129 102 253 126 397 18 105 21 149 16 298 -6 179 -19 262
-62 400 -42 134 -126 314 -137 293 -3 -4 -3 -2 -2 5 2 7 -8 31 -21 52 -41 64
-156 210 -166 210 -5 0 -9 7 -9 15 0 9 -6 12 -15 9 -10 -4 -13 -2 -10 8 5 13
-73 89 -114 112 -9 5 -21 14 -27 22 -19 24 -206 144 -225 144 -10 0 -21 4 -24
10 -6 10 -88 49 -115 55 -8 2 -32 11 -53 20 -22 9 -36 12 -33 6z m-1411 -364
c3 -7 -3 -13 -13 -13 -10 0 -16 6 -13 13 3 7 9 13 13 13 4 0 10 -6 13 -13z
m2069 -129 c-5 -33 -10 -32 -15 3 -3 18 -9 23 -26 21 -28 -4 -27 6 1 17 29 11
45 -5 40 -41z m-2190 10 c-14 -14 -16 -32 -2 -23 6 3 7 -1 4 -9 -4 -11 0 -16
14 -16 12 0 24 -4 27 -10 3 -6 -4 -10 -18 -10 -15 0 -28 8 -34 22 -8 19 -10
20 -16 4 -4 -10 -3 -15 3 -11 6 3 10 1 10 -4 0 -14 -17 -14 -25 -1 -6 10 30
70 43 70 3 0 1 -5 -6 -12z m2233 -34 c8 -3 11 -12 8 -20 -6 -16 -43 -19 -43
-3 0 5 4 8 9 4 6 -3 8 9 7 27 -2 18 -1 25 1 15 3 -10 11 -21 18 -23z m-2145
15 c0 -11 -4 -17 -10 -14 -5 3 -10 13 -10 21 0 8 5 14 10 14 6 0 10 -9 10 -21z
m2188 -65 c4 3 8 -5 8 -16 0 -19 -1 -19 -18 2 -10 12 -18 27 -18 34 0 6 5 3
11 -7 6 -9 13 -15 17 -13z m-1988 6 c0 -5 -9 -10 -20 -10 -11 0 -20 5 -20 10
0 6 9 10 20 10 11 0 20 -4 20 -10z m2005 -59 c-9 -8 -36 -10 -30 -2 2 4 11 8
20 8 8 0 13 -3 10 -6z m-2367 -36 c-3 -3 -9 2 -12 12 -6 14 -5 15 5 6 7 -7 10
-15 7 -18z m338 -1 c1 -9 0 -13 -4 -10 -3 4 -7 14 -8 22 -1 9 0 13 4 10 3 -4
7 -14 8 -22z m44 11 c0 -2 -6 -5 -13 -8 -8 -3 -14 1 -14 8 0 7 6 11 14 8 7 -3
13 -6 13 -8z m135 1 c18 -8 37 -11 41 -8 4 4 4 1 0 -6 -11 -18 85 -116 97 -99
6 8 7 7 3 -5 -6 -21 41 -81 56 -71 7 3 8 1 4 -5 -7 -12 162 -204 174 -197 4 3
7 -1 7 -8 -1 -6 2 -28 7 -48 11 -50 -15 -106 -105 -226 l-71 -95 53 -55 c130
-133 354 -295 513 -372 47 -22 89 -41 94 -41 6 0 22 35 37 78 42 118 59 154
89 189 49 58 66 56 331 -49 223 -87 240 -96 267 -133 28 -38 30 -44 26 -115
-6 -90 -45 -176 -114 -250 -24 -26 -40 -51 -36 -55 4 -5 2 -5 -5 -1 -7 4 -31
-3 -54 -14 -212 -109 -597 -30 -954 196 -49 31 -95 57 -102 57 -7 0 -10 4 -8
8 7 11 -23 32 -35 24 -6 -4 -9 -3 -8 2 5 14 -70 75 -82 68 -6 -4 -9 -3 -8 2 2
4 -37 46 -86 93 -230 221 -384 472 -421 689 -17 96 -11 171 20 245 8 19 12 43
9 53 -5 14 -4 15 4 4 8 -11 12 -10 21 8 7 12 9 26 6 31 -4 6 -1 9 7 8 7 -2 12
5 12 14 -1 10 3 16 10 15 6 -1 10 5 8 13 -2 8 0 12 4 8 4 -4 20 2 37 14 27 19
90 46 110 48 4 0 23 -6 42 -14z m-545 -47 c-6 -11 -17 -18 -25 -16 -7 3 -18 0
-24 -6 -7 -7 -5 3 4 21 19 37 29 42 20 10 -5 -18 -4 -20 4 -8 6 8 11 24 11 35
1 18 1 19 11 3 7 -12 6 -24 -1 -39z m647 45 c-3 -3 -12 -4 -19 -1 -8 3 -5 6 6
6 11 1 17 -2 13 -5z m18 -71 c-2 -10 -4 -19 -4 -21 -1 -2 -6 0 -11 3 -8 5 -7
11 1 21 15 18 18 18 14 -3z m-372 -30 c-3 -7 -6 -13 -8 -13 -2 0 -5 6 -8 13
-3 8 1 14 8 14 7 0 11 -6 8 -14z m451 1 c3 -8 2 -12 -4 -9 -6 3 -10 10 -10 16
0 14 7 11 14 -7z m1716 1 c0 -12 -19 -12 -23 0 -4 9 -1 12 9 8 7 -3 14 -7 14
-8z m33 -5 c3 -11 1 -18 -4 -14 -5 3 -9 0 -9 -5 0 -6 -4 -11 -9 -11 -5 0 -4
11 2 25 14 30 13 30 20 5z m-1775 -15 c-3 -3 -9 2 -12 12 -6 14 -5 15 5 6 7
-7 10 -15 7 -18z m102 -109 c0 -2 -7 -7 -16 -10 -8 -3 -12 -2 -9 4 6 10 25 14
25 6z m-350 -702 c0 -8 -19 -13 -24 -6 -3 5 1 9 9 9 8 0 15 -2 15 -3z m1704
-204 c-6 -6 -10 -3 -10 10 0 13 4 16 10 10 7 -7 7 -13 0 -20z m-2 -265 c-8
-16 -9 -16 -15 -1 -4 10 -3 15 3 11 6 -3 10 -1 10 6 0 7 3 10 6 6 3 -3 2 -13
-4 -22z m-1188 -6 c-2 -4 2 -10 8 -12 7 -3 8 -6 2 -6 -5 -1 -18 5 -28 12 -16
12 -16 13 3 13 11 0 18 -3 15 -7z m1489 -34 c-3 -9 -8 -14 -10 -11 -3 3 -2 9
2 15 9 16 15 13 8 -4z m-1373 -19 c0 -2 -7 -7 -16 -10 -8 -3 -12 -2 -9 4 6 10
25 14 25 6z m1029 -28 c-2 -2 -20 -16 -39 -33 l-35 -30 29 33 c17 17 34 32 40
32 5 0 7 -1 5 -2z m-2101 -43 c-3 -3 -9 2 -12 12 -6 14 -5 15 5 6 7 -7 10 -15
7 -18z m1232 -20 c0 -2 -6 -5 -13 -8 -8 -3 -14 1 -14 8 0 7 6 11 14 8 7 -3 13
-6 13 -8z m40 -19 c-7 -7 -13 -7 -20 0 -6 6 -3 10 10 10 13 0 16 -4 10 -10z
m-1210 -41 c0 6 5 2 11 -8 6 -10 8 -21 5 -24 -3 -4 -6 0 -6 7 0 9 -4 8 -13 -4
-12 -17 -14 -16 -14 13 0 20 3 27 9 19 4 -7 8 -8 8 -3z m1360 -6 c13 -7 13 -8
0 -8 -8 0 -26 6 -40 15 l-25 15 25 -7 c14 -3 32 -10 40 -15z m500 -9 c0 -5 -2
-10 -4 -10 -3 0 -8 5 -11 10 -3 6 -1 10 4 10 6 0 11 -4 11 -10z m-427 -7 c-7
-2 -21 -2 -30 0 -10 3 -4 5 12 5 17 0 24 -2 18 -5z m377 -3 c-8 -5 -24 -9 -35
-9 -16 1 -16 2 5 9 35 11 48 11 30 0z m-437 -7 c-7 -2 -21 -2 -30 0 -10 3 -4
5 12 5 17 0 24 -2 18 -5z m97 -15 c-12 -5 -25 -6 -28 -3 -3 3 0 5 7 5 7 0 10
4 7 9 -4 5 4 7 16 3 l22 -5 -24 -9z m85 12 c18 -8 17 -9 -7 -9 -16 -1 -28 4
-28 9 0 12 8 12 35 0z m280 0 c-3 -5 -12 -10 -18 -10 -7 0 -6 4 3 10 19 12 23
12 15 0z m-115 -16 c0 -2 -9 -4 -21 -4 -11 0 -18 4 -14 10 5 8 35 3 35 -6z
m-87 -1 c-7 -2 -19 -2 -25 0 -7 3 -2 5 12 5 14 0 19 -2 13 -5z m477 -13 c0 -5
-9 -10 -21 -10 -11 0 -17 5 -14 10 3 6 13 10 21 10 8 0 14 -4 14 -10z m115 -8
c4 -12 3 -13 -10 -2 -18 15 -20 0 -2 -20 9 -11 8 -11 -7 0 -18 14 -19 13 -13
-2 3 -10 -2 -26 -13 -40 -11 -13 -20 -18 -20 -13 0 6 -7 -1 -14 -13 l-13 -24
-15 25 c-16 24 -16 24 18 22 22 -2 37 3 43 13 10 17 3 52 -10 52 -5 0 -9 3 -9
8 0 15 59 10 65 -6z m-2152 -62 c5 -19 -18 -48 -29 -37 -9 8 4 57 15 57 5 0
11 -9 14 -20z m2017 -101 c0 -5 -3 -8 -7 -8 -20 3 -34 -2 -29 -10 3 -5 -2 -15
-12 -22 -15 -13 -16 -12 -4 3 9 11 10 18 2 23 -6 3 -8 10 -5 14 6 11 55 11 55
0z m-110 -93 c0 -2 -8 -10 -17 -17 -16 -13 -17 -12 -4 4 13 16 21 21 21 13z"/>
<path d="M1822 3691 c-11 -7 -11 -9 0 -14 9 -3 15 1 15 9 0 8 -1 14 -1 14 -1
0 -7 -4 -14 -9z"/>
<path d="M1790 3670 c0 -6 -8 -10 -18 -10 -35 0 -243 -153 -228 -168 4 -3 11
0 17 8 8 13 12 12 24 -4 8 -11 15 -15 15 -10 0 6 -5 15 -12 22 -15 15 3 37 30
37 9 0 16 6 15 13 -2 6 2 12 7 12 5 0 10 -4 10 -9 0 -5 8 -12 17 -15 16 -6 16
-6 0 12 -16 18 -16 20 1 35 10 10 23 17 29 17 6 0 16 7 23 15 7 9 19 14 27 11
8 -3 11 -1 8 4 -3 6 4 10 17 10 33 0 55 15 34 23 -9 4 -16 2 -16 -3z"/>
<path d="M3125 3630 c-3 -6 1 -7 9 -4 18 7 21 14 7 14 -6 0 -13 -4 -16 -10z"/>
<path d="M3300 3506 c0 -2 7 -9 15 -16 9 -7 15 -8 15 -2 0 5 -7 12 -15 16 -8
3 -15 4 -15 2z"/>
<path d="M1540 3432 c0 -14 11 -21 26 -15 8 3 11 9 8 14 -7 11 -34 12 -34 1z"/>
<path d="M3445 3350 c-3 -5 1 -10 9 -10 9 0 16 5 16 10 0 6 -4 10 -9 10 -6 0
-13 -4 -16 -10z"/>
<path d="M1341 1264 c0 -11 3 -14 6 -6 3 7 2 16 -1 19 -3 4 -6 -2 -5 -13z"/>
<path d="M1740 1130 c-8 -5 -12 -12 -9 -15 4 -3 12 1 19 10 14 17 11 19 -10 5z"/>
<path d="M3237 1129 c-9 -5 -22 -7 -29 -3 -7 4 -8 3 -4 -5 5 -7 -4 -16 -23
-24 -17 -7 -29 -16 -25 -19 6 -6 104 49 104 58 0 6 -2 5 -23 -7z"/>
<path d="M1217 1060 c-8 -22 -11 -40 -7 -40 9 0 33 71 26 77 -1 2 -10 -15 -19
-37z"/>
<path d="M1676 1075 c-11 -8 -15 -15 -10 -15 6 0 19 7 30 15 10 8 15 14 9 14
-5 0 -19 -6 -29 -14z"/>
<path d="M3125 1060 c-3 -5 -12 -7 -20 -3 -8 3 -15 3 -15 0 0 -13 28 -13 45
-1 10 8 14 14 8 14 -7 0 -14 -4 -18 -10z"/>
<path d="M1580 1045 c-19 -7 -28 -13 -20 -13 8 0 31 6 50 13 19 7 28 13 20 13
-8 0 -31 -6 -50 -13z"/>
<path d="M1780 1056 c0 -2 7 -7 16 -10 8 -3 12 -2 9 4 -6 10 -25 14 -25 6z"/>
<path d="M1823 1045 c0 -8 4 -12 9 -9 5 3 6 10 3 15 -9 13 -12 11 -12 -6z"/>
<path d="M1890 1056 c0 -2 7 -7 16 -10 8 -3 12 -2 9 4 -6 10 -25 14 -25 6z"/>
<path d="M3065 1040 c-8 -13 9 -20 24 -11 10 6 9 10 -3 14 -8 3 -18 2 -21 -3z"/>
<path d="M3017 1017 c3 -5 -1 -13 -8 -18 -9 -6 -10 -9 -2 -9 6 0 18 7 26 15 8
8 17 12 21 10 3 -3 4 -2 1 2 -8 11 -45 11 -38 0z"/>
<path d="M1435 1011 c-3 -5 -2 -12 3 -15 5 -3 9 1 9 9 0 17 -3 19 -12 6z"/>
<path d="M1186 984 c-8 -20 -8 -24 2 -24 4 0 8 9 9 20 2 24 -3 26 -11 4z"/>
<path d="M1355 970 c-3 -6 1 -7 9 -4 18 7 21 14 7 14 -6 0 -13 -4 -16 -10z"/>
<path d="M2158 963 c6 -2 18 -2 25 0 6 3 1 5 -13 5 -14 0 -19 -2 -12 -5z"/>
<path d="M1298 953 c7 -3 16 -2 19 1 4 3 -2 6 -13 5 -11 0 -14 -3 -6 -6z"/>
<path d="M1175 939 c4 -6 -1 -17 -11 -25 -18 -14 -18 -14 4 -4 22 11 31 40 11
40 -5 0 -7 -5 -4 -11z"/>
<path d="M2050 946 c0 -2 7 -7 16 -10 8 -3 12 -2 9 4 -6 10 -25 14 -25 6z"/>
<path d="M2105 930 c11 -5 27 -9 35 -9 9 0 8 4 -5 9 -11 5 -27 9 -35 9 -9 0
-8 -4 5 -9z"/>
<path d="M2788 923 c7 -3 16 -2 19 1 4 3 -2 6 -13 5 -11 0 -14 -3 -6 -6z"/>
<path d="M2168 913 c7 -3 16 -2 19 1 4 3 -2 6 -13 5 -11 0 -14 -3 -6 -6z"/>
<path d="M2728 913 c6 -2 18 -2 25 0 6 3 1 5 -13 5 -14 0 -19 -2 -12 -5z"/>
<path d="M2218 903 c7 -3 16 -2 19 1 4 3 -2 6 -13 5 -11 0 -14 -3 -6 -6z"/>
<path d="M2423 883 c15 -2 39 -2 55 0 15 2 2 4 -28 4 -30 0 -43 -2 -27 -4z"/>
</g>
</svg>
